<?xml version="1.0" encoding="UTF-8" standalone="no"?>
<!-- Created with Inkscape (http://www.inkscape.org/) -->

<svg
   width="54mm"
   height="54mm"
   viewBox="0 0 54.000001 53.999999"
   version="1.1"
   id="svg1"
   xml:space="preserve"
   inkscape:version="1.4.3 (0d15f75, 2025-12-25)"
   sodipodi:docname="PLC.svg"
   inkscape:export-filename="Parable.svg"
   inkscape:export-xdpi="96"
   inkscape:export-ydpi="96"
   xmlns:inkscape="http://www.inkscape.org/namespaces/inkscape"
   xmlns:sodipodi="http://sodipodi.sourceforge.net/DTD/sodipodi-0.dtd"
   xmlns="http://www.w3.org/2000/svg"
   xmlns:svg="http://www.w3.org/2000/svg"><sodipodi:namedview
     id="namedview1"
     pagecolor="#ffffff"
     bordercolor="#000000"
     borderopacity="0.25"
     inkscape:showpageshadow="2"
     inkscape:pageopacity="0.0"
     inkscape:pagecheckerboard="false"
     inkscape:deskcolor="#d1d1d1"
     inkscape:document-units="mm"
     inkscape:zoom="2"
     inkscape:cx="45.5"
     inkscape:cy="93.75"
     inkscape:window-width="2400"
     inkscape:window-height="1261"
     inkscape:window-x="2391"
     inkscape:window-y="-9"
     inkscape:window-maximized="1"
     inkscape:current-layer="layer1"><inkscape:page
       x="0"
       y="0"
       width="54.000004"
       height="54"
       id="page2"
       margin="0"
       bleed="0" /></sodipodi:namedview><defs
     id="defs1"><linearGradient
       id="swatch103"
       inkscape:swatch="solid"><stop
         style="stop-color:#000000;stop-opacity:1;"
         offset="0"
         id="stop103" /></linearGradient><linearGradient
       id="swatch92"
       inkscape:swatch="solid"><stop
         style="stop-color:#000000;stop-opacity:1;"
         offset="0"
         id="stop92" /></linearGradient><linearGradient
       id="swatch88"
       inkscape:swatch="solid"><stop
         style="stop-color:#000000;stop-opacity:1;"
         offset="0"
         id="stop88" /></linearGradient><linearGradient
       id="swatch87"
       inkscape:swatch="solid"><stop
         style="stop-color:#000000;stop-opacity:1;"
         offset="0"
         id="stop87" /></linearGradient><linearGradient
       id="swatch80"
       inkscape:swatch="solid"><stop
         style="stop-color:#000000;stop-opacity:1;"
         offset="0"
         id="stop80" /></linearGradient><linearGradient
       id="swatch79"
       inkscape:swatch="solid"><stop
         style="stop-color:#000000;stop-opacity:1;"
         offset="0"
         id="stop79" /></linearGradient><linearGradient
       id="swatch77"
       inkscape:swatch="solid"><stop
         style="stop-color:#000000;stop-opacity:1;"
         offset="0"
         id="stop77" /></linearGradient><linearGradient
       id="swatch62"
       inkscape:swatch="solid"><stop
         style="stop-color:#000000;stop-opacity:1;"
         offset="0"
         id="stop62" /></linearGradient><linearGradient
       id="swatch27"
       inkscape:swatch="solid"><stop
         style="stop-color:#000000;stop-opacity:1;"
         offset="0"
         id="stop27" /></linearGradient><linearGradient
       id="swatch15"
       inkscape:swatch="solid"><stop
         style="stop-color:#000000;stop-opacity:1;"
         offset="0"
         id="stop15" /></linearGradient><linearGradient
       id="swatch14"
       inkscape:swatch="solid"><stop
         style="stop-color:#000000;stop-opacity:1;"
         offset="0"
         id="stop14" /></linearGradient><linearGradient
       id="swatch12"
       inkscape:swatch="solid"><stop
         style="stop-color:#000000;stop-opacity:1;"
         offset="0"
         id="stop13" /></linearGradient></defs><g
     inkscape:label="Livello 1"
     inkscape:groupmode="layer"
     id="layer1"
     transform="translate(-53.267893,-27.958766)"><g
       id="g1"
       transform="matrix(1.0160858,0,0,0.94572288,-0.85685375,1.5175214)"><path
         id="rect104"
         style="fill:#000000;fill-opacity:1;stroke:none;stroke-width:6.45445;stroke-linecap:round;stroke-linejoin:round;stroke-dasharray:none;stroke-opacity:1;paint-order:normal"
         d="m 71.198578,44.474554 c -1.41791,0 -2.5585,1.090763 -2.5585,2.445329 v 19.17609 c 0,1.354566 1.14059,2.445846 2.5585,2.445846 h 17.282666 c 1.41791,0 2.559534,-1.09128 2.559534,-2.445846 v -19.17609 c 0,-1.354566 -1.141624,-2.445329 -2.559534,-2.445329 z m 13.730429,9.368937 c 0.215892,0 0.409621,0.01246 0.581876,0.03772 0.174552,0.02297 0.335667,0.05397 0.482658,0.09302 0.153881,0.04364 0.292489,0.09319 0.416512,0.148312 0.12632,0.05283 0.236563,0.102376 0.330729,0.148311 V 55.51419 H 86.58937 c -0.06431,-0.05512 -0.14567,-0.120578 -0.244429,-0.19637 -0.09646,-0.07579 -0.206706,-0.150264 -0.330729,-0.223759 -0.126321,-0.0735 -0.26332,-0.135507 -0.410311,-0.186036 -0.146991,-0.05053 -0.304145,-0.07596 -0.471806,-0.07596 -0.186035,0 -0.363056,0.0302 -0.530717,0.08992 -0.167661,0.05742 -0.322691,0.153881 -0.465088,0.289388 -0.135507,0.130914 -0.24575,0.303972 -0.330729,0.519865 -0.08268,0.215893 -0.124024,0.47772 -0.124024,0.785482 0,0.321542 0.04479,0.590259 0.134359,0.806152 0.09187,0.215893 0.206878,0.386023 0.344682,0.510047 0.140101,0.12632 0.29645,0.217213 0.468705,0.272334 0.172255,0.05282 0.341868,0.07906 0.50953,0.07906 0.160771,0 0.319245,-0.02412 0.475423,-0.07235 0.158475,-0.04823 0.304489,-0.113688 0.437699,-0.19637 0.11254,-0.0666 0.217214,-0.137632 0.313676,-0.213424 0.09646,-0.07579 0.1757,-0.141249 0.237712,-0.19637 h 0.137459 v 1.226281 c -0.128617,0.05742 -0.251319,0.11122 -0.368453,0.161748 -0.117133,0.05053 -0.239836,0.09451 -0.368453,0.131258 -0.167661,0.04823 -0.325331,0.08481 -0.472322,0.110071 -0.146991,0.02526 -0.348931,0.03772 -0.606165,0.03772 -0.381257,0 -0.733977,-0.05592 -1.057816,-0.168465 -0.321543,-0.11254 -0.597954,-0.280545 -0.829924,-0.503328 -0.23197,-0.222783 -0.412435,-0.500515 -0.541052,-0.833541 -0.12632,-0.333026 -0.189653,-0.717556 -0.189653,-1.153935 0,-0.406521 0.06121,-0.775146 0.182935,-1.105875 0.121727,-0.33073 0.29823,-0.614548 0.5302,-0.851111 0.222783,-0.227377 0.49839,-0.403076 0.826823,-0.5271 0.330729,-0.124023 0.69166,-0.186035 1.082105,-0.186035 z m -11.988933,0.09974 h 2.177128 c 0.326136,0 0.600423,0.02888 0.823206,0.0863 0.22508,0.05512 0.424091,0.139124 0.596346,0.251664 0.206706,0.135507 0.363859,0.308566 0.471806,0.519865 0.110243,0.2113 0.165364,0.465432 0.165364,0.761711 0,0.229673 -0.04002,0.454408 -0.120406,0.674894 -0.08038,0.21819 -0.195394,0.4021 -0.344682,0.551388 -0.204409,0.202112 -0.433105,0.355017 -0.685746,0.45837 -0.250344,0.103352 -0.562526,0.155029 -0.936894,0.155029 h -0.823205 v 1.670699 h -1.322917 z m 5.170744,0 h 1.322917 v 4.137732 h 2.377116 v 0.992188 h -3.700033 z m -3.847827,0.958082 v 1.53634 h 0.378788 c 0.22508,0 0.409794,-0.01378 0.554488,-0.04134 0.146991,-0.02756 0.270211,-0.08268 0.36897,-0.165365 0.08498,-0.0735 0.14567,-0.160943 0.182418,-0.261999 0.03904,-0.103353 0.05839,-0.22818 0.05839,-0.375171 0,-0.144694 -0.0387,-0.268718 -0.116789,-0.372071 -0.07809,-0.105649 -0.168981,-0.179317 -0.272334,-0.220658 -0.137804,-0.05512 -0.272163,-0.08481 -0.403077,-0.0894 -0.130913,-0.0069 -0.305292,-0.01033 -0.523482,-0.01033 z" /><rect
         style="fill:#000000;fill-opacity:1;stroke:none;stroke-width:14.2116;stroke-linecap:round;stroke-linejoin:round;stroke-dasharray:none;stroke-opacity:1;paint-order:stroke fill markers"
         id="rect105"
         width="13.446591"
         height="4.7158632"
         x="-41.405357"
         y="66.674316"
         rx="3.205652"
         ry="2.3579316"
         transform="rotate(-90)" /><rect
         style="fill:#000000;fill-opacity:1;stroke:none;stroke-width:14.2116;stroke-linecap:round;stroke-linejoin:round;stroke-dasharray:none;stroke-opacity:1;paint-order:stroke fill markers"
         id="rect106"
         width="13.446591"
         height="4.7158632"
         x="-41.405357"
         y="73.929504"
         rx="3.205652"
         ry="2.3579316"
         transform="rotate(-90)" /><rect
         style="fill:#000000;fill-opacity:1;stroke:none;stroke-width:14.2116;stroke-linecap:round;stroke-linejoin:round;stroke-dasharray:none;stroke-opacity:1;paint-order:stroke fill markers"
         id="rect107"
         width="13.446591"
         height="4.7158632"
         x="-41.405357"
         y="81.184601"
         rx="3.205652"
         ry="2.3579316"
         transform="rotate(-90)" /><rect
         style="fill:#000000;fill-opacity:1;stroke:none;stroke-width:14.2116;stroke-linecap:round;stroke-linejoin:round;stroke-dasharray:none;stroke-opacity:1;paint-order:stroke fill markers"
         id="rect108"
         width="13.446591"
         height="4.7158632"
         x="-41.405357"
         y="88.439865"
         rx="3.205652"
         ry="2.3579316"
         transform="rotate(-90)" /><rect
         style="fill:#000000;fill-opacity:1;stroke:none;stroke-width:14.2116;stroke-linecap:round;stroke-linejoin:round;stroke-dasharray:none;stroke-opacity:1;paint-order:stroke fill markers"
         id="rect109"
         width="13.446591"
         height="4.7158632"
         x="-41.405357"
         y="66.674316"
         rx="3.205652"
         ry="2.3579316"
         transform="rotate(-90)" /><rect
         style="fill:#000000;fill-opacity:1;stroke:none;stroke-width:14.2116;stroke-linecap:round;stroke-linejoin:round;stroke-dasharray:none;stroke-opacity:1;paint-order:stroke fill markers"
         id="rect110"
         width="13.446591"
         height="4.7158632"
         x="-41.405357"
         y="73.929504"
         rx="3.205652"
         ry="2.3579316"
         transform="rotate(-90)" /><rect
         style="fill:#000000;fill-opacity:1;stroke:none;stroke-width:14.2116;stroke-linecap:round;stroke-linejoin:round;stroke-dasharray:none;stroke-opacity:1;paint-order:stroke fill markers"
         id="rect111"
         width="13.446591"
         height="4.7158632"
         x="-41.405357"
         y="81.184601"
         rx="3.205652"
         ry="2.3579316"
         transform="rotate(-90)" /><rect
         style="fill:#000000;fill-opacity:1;stroke:none;stroke-width:14.2116;stroke-linecap:round;stroke-linejoin:round;stroke-dasharray:none;stroke-opacity:1;paint-order:stroke fill markers"
         id="rect112"
         width="13.446591"
         height="4.7158632"
         x="-41.405357"
         y="88.439865"
         rx="3.205652"
         ry="2.3579316"
         transform="rotate(-90)" /><rect
         style="fill:#000000;fill-opacity:1;stroke:none;stroke-width:14.2116;stroke-linecap:round;stroke-linejoin:round;stroke-dasharray:none;stroke-opacity:1;paint-order:stroke fill markers"
         id="rect113"
         width="13.446591"
         height="4.7158632"
         x="-85.057945"
         y="66.674316"
         rx="3.205652"
         ry="2.3579316"
         transform="rotate(-90)" /><rect
         style="fill:#000000;fill-opacity:1;stroke:none;stroke-width:14.2116;stroke-linecap:round;stroke-linejoin:round;stroke-dasharray:none;stroke-opacity:1;paint-order:stroke fill markers"
         id="rect114"
         width="13.446591"
         height="4.7158632"
         x="-85.057945"
         y="73.929504"
         rx="3.205652"
         ry="2.3579316"
         transform="rotate(-90)" /><rect
         style="fill:#000000;fill-opacity:1;stroke:none;stroke-width:14.2116;stroke-linecap:round;stroke-linejoin:round;stroke-dasharray:none;stroke-opacity:1;paint-order:stroke fill markers"
         id="rect115"
         width="13.446591"
         height="4.7158632"
         x="-85.057945"
         y="81.184601"
         rx="3.205652"
         ry="2.3579316"
         transform="rotate(-90)" /><rect
         style="fill:#000000;fill-opacity:1;stroke:none;stroke-width:14.2116;stroke-linecap:round;stroke-linejoin:round;stroke-dasharray:none;stroke-opacity:1;paint-order:stroke fill markers"
         id="rect116"
         width="13.446591"
         height="4.7158632"
         x="-85.057945"
         y="88.439865"
         rx="3.205652"
         ry="2.3579316"
         transform="rotate(-90)" /><rect
         style="fill:#000000;fill-opacity:1;stroke:none;stroke-width:14.2116;stroke-linecap:round;stroke-linejoin:round;stroke-dasharray:none;stroke-opacity:1;paint-order:stroke fill markers"
         id="rect117"
         width="13.446591"
         height="4.7158632"
         x="-85.057945"
         y="66.674316"
         rx="3.205652"
         ry="2.3579316"
         transform="rotate(-90)" /><rect
         style="fill:#000000;fill-opacity:1;stroke:none;stroke-width:14.2116;stroke-linecap:round;stroke-linejoin:round;stroke-dasharray:none;stroke-opacity:1;paint-order:stroke fill markers"
         id="rect118"
         width="13.446591"
         height="4.7158632"
         x="-85.057945"
         y="73.929504"
         rx="3.205652"
         ry="2.3579316"
         transform="rotate(-90)" /><rect
         style="fill:#000000;fill-opacity:1;stroke:none;stroke-width:14.2116;stroke-linecap:round;stroke-linejoin:round;stroke-dasharray:none;stroke-opacity:1;paint-order:stroke fill markers"
         id="rect119"
         width="13.446591"
         height="4.7158632"
         x="-85.057945"
         y="81.184601"
         rx="3.205652"
         ry="2.3579316"
         transform="rotate(-90)" /><rect
         style="fill:#000000;fill-opacity:1;stroke:none;stroke-width:14.2116;stroke-linecap:round;stroke-linejoin:round;stroke-dasharray:none;stroke-opacity:1;paint-order:stroke fill markers"
         id="rect120"
         width="13.446591"
         height="4.7158632"
         x="-85.057945"
         y="88.439865"
         rx="3.205652"
         ry="2.3579316"
         transform="rotate(-90)" /><rect
         style="fill:#000000;fill-opacity:1;stroke:none;stroke-width:14.2116;stroke-linecap:round;stroke-linejoin:round;stroke-dasharray:none;stroke-opacity:1;paint-order:stroke fill markers"
         id="rect121"
         width="12.515176"
         height="5.0668311"
         x="-65.783066"
         y="-70.80159"
         rx="2.9836037"
         ry="2.5334156"
         transform="scale(-1)" /><rect
         style="fill:#000000;fill-opacity:1;stroke:none;stroke-width:14.2116;stroke-linecap:round;stroke-linejoin:round;stroke-dasharray:none;stroke-opacity:1;paint-order:stroke fill markers"
         id="rect122"
         width="12.515176"
         height="5.0668311"
         x="-65.783066"
         y="-63.006424"
         rx="2.9836037"
         ry="2.5334156"
         transform="scale(-1)" /><rect
         style="fill:#000000;fill-opacity:1;stroke:none;stroke-width:14.2116;stroke-linecap:round;stroke-linejoin:round;stroke-dasharray:none;stroke-opacity:1;paint-order:stroke fill markers"
         id="rect123"
         width="12.515176"
         height="5.0668311"
         x="-65.783066"
         y="-55.211342"
         rx="2.9836037"
         ry="2.5334156"
         transform="scale(-1)" /><rect
         style="fill:#000000;fill-opacity:1;stroke:none;stroke-width:14.2116;stroke-linecap:round;stroke-linejoin:round;stroke-dasharray:none;stroke-opacity:1;paint-order:stroke fill markers"
         id="rect124"
         width="12.515176"
         height="5.0668311"
         x="-65.783066"
         y="-47.41621"
         rx="2.9836037"
         ry="2.5334156"
         transform="scale(-1)" /><rect
         style="fill:#000000;fill-opacity:1;stroke:none;stroke-width:14.2116;stroke-linecap:round;stroke-linejoin:round;stroke-dasharray:none;stroke-opacity:1;paint-order:stroke fill markers"
         id="rect125"
         width="12.515176"
         height="5.0668311"
         x="-65.783066"
         y="-70.80159"
         rx="2.9836037"
         ry="2.5334156"
         transform="scale(-1)" /><rect
         style="fill:#000000;fill-opacity:1;stroke:none;stroke-width:14.2116;stroke-linecap:round;stroke-linejoin:round;stroke-dasharray:none;stroke-opacity:1;paint-order:stroke fill markers"
         id="rect126"
         width="12.515176"
         height="5.0668311"
         x="-65.783066"
         y="-63.006424"
         rx="2.9836037"
         ry="2.5334156"
         transform="scale(-1)" /><rect
         style="fill:#000000;fill-opacity:1;stroke:none;stroke-width:14.2116;stroke-linecap:round;stroke-linejoin:round;stroke-dasharray:none;stroke-opacity:1;paint-order:stroke fill markers"
         id="rect127"
         width="12.515176"
         height="5.0668311"
         x="-65.783066"
         y="-55.211342"
         rx="2.9836037"
         ry="2.5334156"
         transform="scale(-1)" /><rect
         style="fill:#000000;fill-opacity:1;stroke:none;stroke-width:14.2116;stroke-linecap:round;stroke-linejoin:round;stroke-dasharray:none;stroke-opacity:1;paint-order:stroke fill markers"
         id="rect128"
         width="12.515176"
         height="5.0668311"
         x="-65.783066"
         y="-47.41621"
         rx="2.9836037"
         ry="2.5334156"
         transform="scale(-1)" /><rect
         style="fill:#000000;fill-opacity:1;stroke:none;stroke-width:14.2116;stroke-linecap:round;stroke-linejoin:round;stroke-dasharray:none;stroke-opacity:1;paint-order:stroke fill markers"
         id="rect129"
         width="12.515176"
         height="5.0668311"
         x="-106.41301"
         y="-70.80159"
         rx="2.9836037"
         ry="2.5334156"
         transform="scale(-1)" /><rect
         style="fill:#000000;fill-opacity:1;stroke:none;stroke-width:14.2116;stroke-linecap:round;stroke-linejoin:round;stroke-dasharray:none;stroke-opacity:1;paint-order:stroke fill markers"
         id="rect130"
         width="12.515176"
         height="5.0668311"
         x="-106.41301"
         y="-63.006424"
         rx="2.9836037"
         ry="2.5334156"
         transform="scale(-1)" /><rect
         style="fill:#000000;fill-opacity:1;stroke:none;stroke-width:14.2116;stroke-linecap:round;stroke-linejoin:round;stroke-dasharray:none;stroke-opacity:1;paint-order:stroke fill markers"
         id="rect131"
         width="12.515176"
         height="5.0668311"
         x="-106.41301"
         y="-55.211342"
         rx="2.9836037"
         ry="2.5334156"
         transform="scale(-1)" /><rect
         style="fill:#000000;fill-opacity:1;stroke:none;stroke-width:14.2116;stroke-linecap:round;stroke-linejoin:round;stroke-dasharray:none;stroke-opacity:1;paint-order:stroke fill markers"
         id="rect132"
         width="12.515176"
         height="5.0668311"
         x="-106.41301"
         y="-47.41621"
         rx="2.9836037"
         ry="2.5334156"
         transform="scale(-1)" /><rect
         style="fill:#000000;fill-opacity:1;stroke:none;stroke-width:14.2116;stroke-linecap:round;stroke-linejoin:round;stroke-dasharray:none;stroke-opacity:1;paint-order:stroke fill markers"
         id="rect133"
         width="12.515176"
         height="5.0668311"
         x="-106.41301"
         y="-70.80159"
         rx="2.9836037"
         ry="2.5334156"
         transform="scale(-1)" /><rect
         style="fill:#000000;fill-opacity:1;stroke:none;stroke-width:14.2116;stroke-linecap:round;stroke-linejoin:round;stroke-dasharray:none;stroke-opacity:1;paint-order:stroke fill markers"
         id="rect134"
         width="12.515176"
         height="5.0668311"
         x="-106.41301"
         y="-63.006424"
         rx="2.9836037"
         ry="2.5334156"
         transform="scale(-1)" /><rect
         style="fill:#000000;fill-opacity:1;stroke:none;stroke-width:14.2116;stroke-linecap:round;stroke-linejoin:round;stroke-dasharray:none;stroke-opacity:1;paint-order:stroke fill markers"
         id="rect135"
         width="12.515176"
         height="5.0668311"
         x="-106.41301"
         y="-55.211342"
         rx="2.9836037"
         ry="2.5334156"
         transform="scale(-1)" /><rect
         style="fill:#000000;fill-opacity:1;stroke:none;stroke-width:14.2116;stroke-linecap:round;stroke-linejoin:round;stroke-dasharray:none;stroke-opacity:1;paint-order:stroke fill markers"
         id="rect136"
         width="12.515176"
         height="5.0668311"
         x="-106.41301"
         y="-47.41621"
         rx="2.9836037"
         ry="2.5334156"
         transform="scale(-1)" /><path
         id="rect63"
         style="fill:#000000;fill-opacity:1;stroke:none;stroke-width:14.6152;stroke-linecap:round;stroke-linejoin:round;stroke-dasharray:none;stroke-opacity:1;paint-order:normal"
         d="m 65.14932,34.181244 c -3.36791,0 -6.07767,3.518228 -6.07767,7.887178 V 71.0825 c 0,4.36895 2.70976,7.887236 6.07767,7.887236 h 29.52871 c 3.36796,0 6.08043,-3.518286 6.08043,-7.887236 V 42.068422 c 0,-4.36895 -2.71247,-7.887178 -6.08043,-7.887178 z m 4.10306,7.547837 h 21.32264 c 1.74927,0 3.15825,1.344517 3.15825,3.015641 v 23.658566 c 0,1.671124 -1.40898,3.018553 -3.15825,3.018553 H 69.25238 c -1.74927,0 -3.15559,-1.347429 -3.15559,-3.018553 V 44.744722 c 0,-1.671124 1.40632,-3.015641 3.15559,-3.015641 z" /></g></g></svg>
